<?xml version="1.0" encoding="UTF-8" standalone="no"?>
<!DOCTYPE svg PUBLIC "-//W3C//DTD SVG 1.1//EN" "http://www.w3.org/Graphics/SVG/1.1/DTD/svg11.dtd">
<svg version="1.1" xmlns="http://www.w3.org/2000/svg" xmlns:xlink="http://www.w3.org/1999/xlink" preserveAspectRatio="xMidYMid meet" viewBox="0 0 640 640" width="640" height="640"><defs><path d="M82.52 44.2C49.39 44.2 22.52 71.07 22.52 104.2C22.52 148.2 22.52 500.2 22.52 544.2C22.52 577.32 49.39 604.2 82.52 604.2C126.52 604.2 478.52 604.2 522.52 604.2C555.64 604.2 582.52 577.32 582.52 544.2C582.52 500.2 582.52 148.2 582.52 104.2C582.52 71.07 555.64 44.2 522.52 44.2C434.52 44.2 126.52 44.2 82.52 44.2ZM354.77 513.82C354.77 507.07 355.02 472.57 355.02 444.7C355.02 425.2 348.52 412.82 340.89 406.32C387.14 401.2 435.89 394.82 435.89 314.95C435.89 292.2 427.77 280.82 414.52 266.2C416.64 260.82 423.77 238.7 412.39 209.95C395.02 204.57 355.27 232.32 355.27 232.32C338.77 227.7 320.89 225.32 303.27 225.32C285.64 225.32 267.77 227.7 251.27 232.32C251.27 232.32 211.52 204.57 194.14 209.95C182.77 238.57 189.77 260.7 192.02 266.2C178.77 280.82 172.52 292.2 172.52 314.95C172.52 394.45 219.14 401.2 265.39 406.32C259.39 411.7 254.02 420.95 252.14 434.2C240.27 439.57 209.89 448.82 191.77 416.82C180.39 397.07 159.89 395.45 159.89 395.45C139.64 395.2 158.52 408.2 158.52 408.2C172.02 414.45 181.52 438.45 181.52 438.45C193.64 475.57 251.64 463.07 251.64 463.07C251.64 480.45 251.89 508.7 251.89 513.82C251.89 519.2 248.14 525.7 237.52 523.82C155.02 496.2 97.27 417.7 97.27 325.95C97.27 211.2 185.02 124.07 299.77 124.07C414.52 124.07 507.52 211.2 507.52 325.95C507.64 417.7 451.64 496.32 369.14 523.82C358.64 525.7 354.77 519.2 354.77 513.82ZM241.64 445.32C241.39 443.45 243.02 441.82 245.39 441.32C247.77 441.07 250.02 442.07 250.27 443.7C250.64 445.32 249.02 446.95 246.52 447.45C244.14 447.95 241.89 446.95 241.64 445.32ZM230.27 449.32C227.52 449.57 225.64 448.2 225.64 446.32C225.64 444.7 227.52 443.32 230.02 443.32C232.39 443.07 234.64 444.45 234.64 446.32C234.64 447.95 232.77 449.32 230.27 449.32ZM212.39 446.57C210.02 446.07 208.39 444.2 208.89 442.57C209.39 440.95 211.89 440.2 214.02 440.7C216.52 441.45 218.14 443.32 217.52 444.95C217.02 446.57 214.52 447.32 212.39 446.57ZM196.77 437.45C194.89 435.82 194.39 433.45 195.64 432.32C196.77 430.95 199.14 431.2 201.02 433.07C202.64 434.7 203.27 437.2 202.14 438.2C201.02 439.57 198.64 439.32 196.77 437.45ZM186.14 424.95C184.77 423.07 184.77 420.95 186.14 420.07C187.52 418.95 189.64 419.82 190.77 421.7C192.14 423.57 192.14 425.82 190.77 426.82C189.64 427.57 187.52 426.82 186.14 424.95ZM178.27 413.95C176.89 412.32 176.64 410.45 177.77 409.57C178.89 408.45 180.77 409.07 182.14 410.32C183.52 411.95 183.77 413.82 182.64 414.7C181.52 415.82 179.64 415.2 178.27 413.95ZM170.77 405.95C169.14 405.2 168.39 403.82 168.89 402.7C169.39 401.95 170.77 401.57 172.39 402.2C174.02 403.07 174.77 404.45 174.27 405.45C173.77 406.57 172.14 406.82 170.77 405.95Z" id="djnxI1tXL"></path></defs><g><g><g><use xlink:href="#djnxI1tXL" opacity="1" fill="#ffffff" fill-opacity="1"></use><g><use xlink:href="#djnxI1tXL" opacity="1" fill-opacity="0" stroke="#000000" stroke-width="1" stroke-opacity="0"></use></g></g></g></g></svg>