<?xml version="1.0" encoding="UTF-8" standalone="no"?>
<!DOCTYPE svg PUBLIC "-//W3C//DTD SVG 1.1//EN" "http://www.w3.org/Graphics/SVG/1.1/DTD/svg11.dtd">
<svg version="1.1" xmlns="http://www.w3.org/2000/svg" xmlns:xlink="http://www.w3.org/1999/xlink" preserveAspectRatio="xMidYMid meet" viewBox="0 0 640 640" width="640" height="640"><defs><path d="M79.88 36.55C57.88 36.55 40 54.68 40 76.93C40 124.85 40 508.25 40 556.18C40 578.43 57.88 596.55 79.88 596.55C127.89 596.55 511.99 596.55 560 596.55C582 596.55 600 578.43 600 556.18C600 508.25 600 124.85 600 76.93C600 54.68 582 36.55 560 36.55C463.98 36.55 127.89 36.55 79.88 36.55ZM209.25 516.55L126.25 516.55L126.25 249.3L209.38 249.3L209.38 516.55L209.25 516.55ZM119.63 164.68C119.63 138.18 141.13 116.55 167.75 116.55C194.25 116.55 215.88 138.18 215.88 164.68C215.88 191.3 194.37 212.8 167.75 212.8C141.13 212.8 119.63 191.18 119.63 164.68ZM437.38 516.55C437.38 438.55 437.38 395.22 437.38 386.55C437.38 355.55 436.75 315.68 394.25 315.68C351 315.68 344.37 349.43 344.37 384.3C344.37 393.12 344.37 437.2 344.37 516.55L261.37 516.55L261.37 249.3L341 249.3L341 285.8C341.67 285.8 342.05 285.8 342.12 285.8C353.25 264.8 380.37 242.68 420.75 242.68C504.75 242.68 520.38 298.05 520.38 370.05C520.38 379.82 520.38 428.65 520.38 516.55L437.38 516.55Z" id="a2UPhkAo2q"></path></defs><g><g><g><use xlink:href="#a2UPhkAo2q" opacity="1" fill="#ffffff" fill-opacity="1"></use><g><use xlink:href="#a2UPhkAo2q" opacity="1" fill-opacity="0" stroke="#000000" stroke-width="1" stroke-opacity="0"></use></g></g></g></g></svg>